<svg xmlns="http://www.w3.org/2000/svg" viewBox="0 0 512 512">
  <defs>
    <linearGradient id="grad1" x1="0%" y1="0%" x2="100%" y2="100%">
      <stop offset="0%" style="stop-color:#3b82f6;stop-opacity:1" />
      <stop offset="100%" style="stop-color:#1d4ed8;stop-opacity:1" />
    </linearGradient>
  </defs>
  <rect width="512" height="512" rx="128" fill="url(#grad1)" />
  <path d="M364.2 147.8C336.7 120.3 299.6 104 256 104c-69.1 0-127.8 46.3-146.2 109.3l-29.6-10.1C102.4 128.5 173.2 72 256 72c52.4 0 99.6 20.6 134.2 54.2l51.2-51.2V192H326.8l37.4-44.2zM147.8 364.2C175.3 391.7 212.4 408 256 408c69.1 0 127.8-46.3 146.2-109.3l29.6 10.1C409.6 383.5 338.8 440 256 440c-52.4 0-99.6-20.6-134.2-54.2l-51.2 51.2V320h114.6l-37.4 44.2z" fill="white"/>
</svg>